<svg width="1440" height="262" viewBox="0 0 1440 262" fill="none" xmlns="http://www.w3.org/2000/svg">
<rect x="1440" y="262" width="120" height="262" transform="rotate(-180 1440 262)" fill="url(#paint0_linear_1504_241)"/>
<rect x="720" y="262" width="120" height="262" transform="rotate(-180 720 262)" fill="url(#paint1_linear_1504_241)"/>
<rect x="1200" y="262" width="120" height="262" transform="rotate(-180 1200 262)" fill="url(#paint2_linear_1504_241)"/>
<rect x="480" y="262" width="120" height="262" transform="rotate(-180 480 262)" fill="url(#paint3_linear_1504_241)"/>
<rect x="960" y="262" width="120" height="262" transform="rotate(-180 960 262)" fill="url(#paint4_linear_1504_241)"/>
<rect x="240" y="262" width="120" height="262" transform="rotate(-180 240 262)" fill="url(#paint5_linear_1504_241)"/>
<rect x="1200" width="120" height="262" fill="url(#paint6_linear_1504_241)"/>
<rect x="480" width="120" height="262" fill="url(#paint7_linear_1504_241)"/>
<rect x="960" width="120" height="262" fill="url(#paint8_linear_1504_241)"/>
<rect x="240" width="120" height="262" fill="url(#paint9_linear_1504_241)"/>
<rect x="720" width="120" height="262" fill="url(#paint10_linear_1504_241)"/>
<rect width="120" height="262" fill="url(#paint11_linear_1504_241)"/>
<rect x="1440" y="262" width="1440" height="262" transform="rotate(-180 1440 262)" fill="url(#paint12_linear_1504_241)"/>
<defs>
<linearGradient id="paint0_linear_1504_241" x1="1440" y1="394.083" x2="1560" y2="394.083" gradientUnits="userSpaceOnUse">
<stop stop-color="#4AE2DE"/>
<stop offset="1" stop-color="#58D6CE"/>
</linearGradient>
<linearGradient id="paint1_linear_1504_241" x1="720" y1="394.083" x2="840" y2="394.083" gradientUnits="userSpaceOnUse">
<stop stop-color="#A39883"/>
<stop offset="1" stop-color="#B38B74"/>
</linearGradient>
<linearGradient id="paint2_linear_1504_241" x1="1200" y1="394.083" x2="1320" y2="394.083" gradientUnits="userSpaceOnUse">
<stop stop-color="#67C9BF"/>
<stop offset="1" stop-color="#76BDB1"/>
</linearGradient>
<linearGradient id="paint3_linear_1504_241" x1="480" y1="394.083" x2="600" y2="394.083" gradientUnits="userSpaceOnUse">
<stop stop-color="#C17F65"/>
<stop offset="1" stop-color="#D17256"/>
</linearGradient>
<linearGradient id="paint4_linear_1504_241" x1="960" y1="394.083" x2="1080" y2="394.083" gradientUnits="userSpaceOnUse">
<stop stop-color="#85B1A1"/>
<stop offset="1" stop-color="#94A493"/>
</linearGradient>
<linearGradient id="paint5_linear_1504_241" x1="240" y1="394.083" x2="360" y2="394.083" gradientUnits="userSpaceOnUse">
<stop stop-color="#E06547"/>
<stop offset="1" stop-color="#EE5938"/>
</linearGradient>
<linearGradient id="paint6_linear_1504_241" x1="1200" y1="132.083" x2="1320" y2="132.083" gradientUnits="userSpaceOnUse">
<stop stop-color="#59D6CE"/>
<stop offset="1" stop-color="#67C9C0"/>
</linearGradient>
<linearGradient id="paint7_linear_1504_241" x1="480" y1="132.083" x2="600" y2="132.083" gradientUnits="userSpaceOnUse">
<stop stop-color="#B38B74"/>
<stop offset="1" stop-color="#C17F65"/>
</linearGradient>
<linearGradient id="paint8_linear_1504_241" x1="960" y1="132.083" x2="1080" y2="132.083" gradientUnits="userSpaceOnUse">
<stop stop-color="#76BDB1"/>
<stop offset="1" stop-color="#85B1A1"/>
</linearGradient>
<linearGradient id="paint9_linear_1504_241" x1="240" y1="132.083" x2="360" y2="132.083" gradientUnits="userSpaceOnUse">
<stop stop-color="#D17256"/>
<stop offset="1" stop-color="#DF6547"/>
</linearGradient>
<linearGradient id="paint10_linear_1504_241" x1="720" y1="132.083" x2="840" y2="132.083" gradientUnits="userSpaceOnUse">
<stop stop-color="#95A493"/>
<stop offset="1" stop-color="#A39883"/>
</linearGradient>
<linearGradient id="paint11_linear_1504_241" x1="9.35106e-07" y1="132.083" x2="120" y2="132.083" gradientUnits="userSpaceOnUse">
<stop stop-color="#EE5938"/>
<stop offset="1" stop-color="#FE4D29"/>
</linearGradient>
<linearGradient id="paint12_linear_1504_241" x1="2160" y1="156.65" x2="2160.17" y2="524" gradientUnits="userSpaceOnUse">
<stop stop-opacity="0"/>
<stop offset="1"/>
</linearGradient>
</defs>
</svg>
